<svg width="800" height="800" viewBox="0 0 800 800" fill="none" xmlns="http://www.w3.org/2000/svg">
<g clip-path="url(#clip0_2001_2)">
<path d="M194.833 228.667C251.627 228.667 297.667 182.627 297.667 125.833C297.667 69.0401 251.627 23 194.833 23C138.04 23 92 69.0401 92 125.833C92 182.627 138.04 228.667 194.833 228.667Z" fill="white" stroke="white" stroke-width="16.6667" stroke-linecap="round" stroke-linejoin="round"/>
<path d="M194.833 464.667C251.627 464.667 297.667 418.627 297.667 361.833C297.667 305.04 251.627 259 194.833 259C138.04 259 92 305.04 92 361.833C92 418.627 138.04 464.667 194.833 464.667Z" fill="white" stroke="white" stroke-width="16.6667" stroke-linecap="round" stroke-linejoin="round"/>
<path d="M194.5 700.667C251.293 700.667 297.333 654.627 297.333 597.833C297.333 541.04 251.293 495 194.5 495C137.707 495 91.6667 541.04 91.6667 597.833C91.6667 654.627 137.707 700.667 194.5 700.667Z" fill="white" stroke="white" stroke-width="16.6667" stroke-linecap="round" stroke-linejoin="round"/>
<path d="M430.833 228.667C487.627 228.667 533.667 182.627 533.667 125.833C533.667 69.0401 487.627 23 430.833 23C374.04 23 328 69.0401 328 125.833C328 182.627 374.04 228.667 430.833 228.667Z" fill="white" stroke="white" stroke-width="16.6667" stroke-linecap="round" stroke-linejoin="round"/>
<path d="M430.833 464.667C487.627 464.667 533.667 418.627 533.667 361.833C533.667 305.04 487.627 259 430.833 259C374.04 259 328 305.04 328 361.833C328 418.627 374.04 464.667 430.833 464.667Z" fill="white" stroke="white" stroke-width="16.6667" stroke-linecap="round" stroke-linejoin="round"/>
<path d="M666.833 464.667C723.627 464.667 769.667 418.627 769.667 361.833C769.667 305.04 723.627 259 666.833 259C610.04 259 564 305.04 564 361.833C564 418.627 610.04 464.667 666.833 464.667Z" fill="white" stroke="white" stroke-width="16.6667" stroke-linecap="round" stroke-linejoin="round"/>
<path d="M430.833 700.667C487.627 700.667 533.667 654.627 533.667 597.833C533.667 541.04 487.627 495 430.833 495C374.04 495 328 541.04 328 597.833C328 654.627 374.04 700.667 430.833 700.667Z" fill="white" stroke="white" stroke-width="16.6667" stroke-linecap="round" stroke-linejoin="round"/>
</g>
<defs>
<clipPath id="clip0_2001_2">
<rect width="800" height="800" fill="white"/>
</clipPath>
</defs>
</svg>
